# xmcd
#
# Track frame offsets:
#	150
#	11270
#	20454
#	32396
#	52483
#	63680
#	76777
#	88774
#	101981
#	114776
#	132103
#	143110
#	156212
#	166316
#	180498
#
# Disc length: 2577 seconds
#
# Revision: 0
# Processed by: cddbd v1.5.2PL0 Copyright (c) Steve Scherf et al.
# Submitted via: EasyCDDAExtractor 16.0.6.1
#
DISCID=bb0a0f0f
DTITLE=Συλλογικός δίσκος - Τα τραγούδια της εξορίας-Μ. Θεοδωράκης 4
DYEAR=2014
DGENRE=Έντεχνη λαϊκή
TTITLE0=Φαραντούρη Μ.-Θεοδωράκης Μ.-Δημητριάδη Μ.-Καραλής Λ. - Στην Ελλάδα σήμ
TTITLE0=ερα [Αλ. Παναγούλης]
TTITLE1=Φαραντούρη Μ.-Θεοδωράκης Μ.-Δημητριάδη Μ.-Καραλής Λ. - Στον Νικηφόρο Μ
TTITLE1=ανδηλαρά [Αλ. Παναγούλης]
TTITLE2=Φαραντούρη Μ.-Θεοδωράκης Μ.-Δημητριάδη Μ.-Καραλής Λ. - Οι πρώτοι νεκρο
TTITLE2=ί (Πάλης ξεκίνημα) [Αλ. Παναγούλης]
TTITLE3=Φαραντούρη Μ.-Θεοδωράκης Μ.-Δημητριάδη Μ.-Καραλής Λ. - Αλέξανδρέ μου (
TTITLE3=Όταν χτυπήσ. 2 φορ.)[Μ. Θεοδωράκης]
TTITLE4=Φαραντούρη Μ.-Θεοδωράκης Μ.-Δημητριάδη Μ.-Καραλής Λ. - Ο θρήνος [Γ. Δε
TTITLE4=ληγιάννη Αναστασιάδη]
TTITLE5=Φαραντούρη Μ.-Θεοδωράκης Μ.-Δημητριάδη Μ.-Καραλής Λ. - Μην ξεχνάς τον 
TTITLE5=Ωρωπό [Μ. Θεοδωράκης]
TTITLE6=Φαραντούρη Μ.-Θεοδωράκης Μ.-Δημητριάδη Μ.-Καραλής Λ. - Διότι δεν συνεμ
TTITLE6=ορφώθην [Μ. Θεοδωράκης]
TTITLE7=Δημητριάδη Μ.-Φαραντούρη Μ.-Θεοδωράκης Μ.-Καραλής Λ. - Ο λεβέντης [Νότ
TTITLE7=ης Περγιάλης]
TTITLE8=Θεοδωράκης Μ.-Φαραντούρη Μ.-Δημητριάδη Μ.  Καραλής Λ. - Η επιστολή [Μ.
TTITLE8=Ελευθερίου]
TTITLE9=Θεοδωράκης Μ.-Φαραντούρη Μ.-Δημητριάδη Μ.  Καραλής Λ. - Η αυλή [Μ. Ελε
TTITLE9=υθερίου]
TTITLE10=Φαραντούρη Μ.-Θεοδωράκης Μ.-Δημητ/δη Μ.-Καραλής Λ. - Ποιος τη ζωή μου
TTITLE10=[Μ. Ελευθερίου]
TTITLE11=Θεοδωράκης Μ.-Φαραντούρη Μ.-Δημητριάδη Μ.  Καραλής Λ. - Κλείσ' το παρ
TTITLE11=άθυρο [Μ. Ελευθερίου]
TTITLE12=Φαραντούρη Μαρία-Θεοδωράκης Μίκης - Ωδή τρίτη: Τα ηφαίστια [Αρκαδία I
TTITLE12=V, Ανδρέας Κάλβος]
TTITLE13=Φαραντούρη Μαρία-Θεοδωράκης Μίκης - Ωδή τέταρτη: Εις Σάμον [Αρκαδία I
TTITLE13=V, Ανδρέας Κάλβος]
TTITLE14=Φαραντούρη Μαρία-Θεοδωράκης Μίκης - Ωδή έκτη: Αι ευχαί [Αρκαδία IV, Α
TTITLE14=νδρέας Κάλβος]
EXTD=
EXTT0=
EXTT1=
EXTT2=
EXTT3=
EXTT4=
EXTT5=
EXTT6=
EXTT7=
EXTT8=
EXTT9=
EXTT10=
EXTT11=
EXTT12=
EXTT13=
EXTT14=
PLAYORDER=
